# File created by Blade
# Date/Time:  Tue Sep 23 19:15:59 2014
# Frame Rate: 120.000 fps
#------------------------------------------------------
:FULLY-SPECIFIED
:DEGREES
1619
root 3.005547 32.878612 -6.189560 49.549511 -30.726721 -29.986824
Spine -30.577782 -19.830896 36.386001
Head -15.092413 -10.386579 -1.805369
LeftShoulder 10.256392 45.380958 25.985073
LeftArm 68.899795 24.868220 -68.442458
LeftForeArm -4.201640 -0.000000 57.532251
LeftHand 45.029392 -0.000000 13.653978
LeftHandThumb1 -26.253704 0.000000 33.147579
RightShoulder -0.746738 -53.105771 -12.258428
RightArm 66.853802 -12.177425 54.768594
RightForeArm 48.253827 -0.000000 45.996732
RightHand 13.774898 -0.000000 14.877812
RightHandThumb1 -24.326973 -0.000000 -32.862282
LeftUpLeg -45.423728 13.804219 13.102354
LeftLeg 28.325674 -0.000000 -0.000000
LeftFoot -19.466378 9.724769 -1.547074
LeftToeBase 4.623601 -0.000000 -0.000000
RightUpLeg -156.284706 -26.207827 23.825788
RightLeg 150.033920 -0.000000 -0.000000
RightFoot 44.784224 -2.519226 4.802314
RightToeBase 50.734243 -0.000000 -0.000000
1620
root 3.010022 32.877199 -6.167050 49.656509 -31.092008 -30.075561
Spine -30.523849 -20.036684 36.377718
Head -14.973580 -10.086978 -2.069703
LeftShoulder 10.152343 45.216802 25.665562
LeftArm 69.281389 24.624305 -69.428991
LeftForeArm -5.493802 0.000000 54.448929
LeftHand 46.018923 -0.000000 13.195257
LeftHandThumb1 -26.253704 0.000000 33.147579
RightShoulder -0.301238 -53.161455 -12.749480
RightArm 67.102832 -12.327230 54.745349
RightForeArm 48.280815 -0.000000 45.883035
RightHand 13.714388 -0.000000 14.990571
RightHandThumb1 -24.326973 -0.000000 -32.862282
LeftUpLeg -45.362229 14.053600 12.892118
LeftLeg 28.379855 -0.000000 -0.000000
LeftFoot -19.507559 9.644436 -1.661562
LeftToeBase 4.800631 -0.000000 -0.000000
RightUpLeg -156.251153 -25.871116 23.654405
RightLeg 150.227872 -0.000000 -0.000000
RightFoot 44.839593 -2.621582 5.031153
RightToeBase 50.791230 -0.000000 -0.000000
1621
root 3.016890 32.881552 -6.151530 49.902784 -31.357253 -30.176866
Spine -30.620831 -20.218051 36.513550
Head -14.874012 -9.796467 -2.300925
LeftShoulder 9.955430 45.031856 25.246692
LeftArm 70.105304 24.202681 -69.384533
LeftForeArm -2.073391 0.000000 51.539734
LeftHand 45.710452 -0.000000 14.738080
LeftHandThumb1 -26.253704 0.000000 33.147579
RightShoulder 0.136467 -53.176552 -13.228991
RightArm 67.422159 -12.510661 54.593947
RightForeArm 48.410107 -0.000000 45.698738
RightHand 13.657032 -0.000000 15.103476
RightHandThumb1 -24.326973 -0.000000 -32.862282
LeftUpLeg -45.486069 14.197014 12.793345
LeftLeg 28.480923 -0.000000 -0.000000
LeftFoot -19.499619 9.625135 -1.860126
LeftToeBase 4.709734 -0.000000 -0.000000
RightUpLeg -156.440527 -25.412387 23.721787
RightLeg 150.302894 -0.000000 -0.000000
RightFoot 45.156901 -2.941389 5.404217
RightToeBase 50.968915 -0.000000 -0.000000
1622
root 3.025551 32.884033 -6.138244 50.235318 -31.655045 -30.229038
Spine -30.845745 -20.371267 36.646428
Head -14.729712 -9.455452 -2.567749
LeftShoulder 9.744423 44.856008 24.882173
LeftArm 71.246358 23.750935 -68.482080
LeftForeArm 2.116622 0.000000 49.036421
LeftHand 44.823086 -0.000000 16.418844
LeftHandThumb1 -26.253704 0.000000 33.147579
RightShoulder 0.640564 -53.088032 -13.777611
RightArm 67.699526 -12.783447 54.396784
RightForeArm 48.569523 -0.000000 45.526025
RightHand 13.641687 0.000000 15.169880
RightHandThumb1 -24.326973 -0.000000 -32.862282
LeftUpLeg -45.746979 14.380094 12.580172
LeftLeg 28.591331 -0.000000 -0.000000
LeftFoot -19.407118 9.630194 -1.996895
LeftToeBase 4.446268 -0.000000 -0.000000
RightUpLeg -156.807345 -24.800710 23.866606
RightLeg 150.441117 -0.000000 -0.000000
RightFoot 45.093477 -3.225287 5.823397
RightToeBase 51.001176 -0.000000 -0.000000
1623
root 3.035631 32.883612 -6.123177 50.455958 -31.887460 -30.238528
Spine -31.011917 -20.632514 36.819608
Head -14.713209 -9.065367 -2.860988
LeftShoulder 9.520245 44.701347 24.501729
LeftArm 72.762328 23.304514 -66.752395
LeftForeArm 4.786911 0.000000 46.768613
LeftHand 44.629248 -0.000000 16.928775
LeftHandThumb1 -26.253704 0.000000 33.147579
RightShoulder 1.151057 -52.926929 -14.356510
RightArm 67.957989 -13.093912 54.273103
RightForeArm 48.689241 -0.000000 45.349971
RightHand 13.656259 -0.000000 15.263353
RightHandThumb1 -24.326973 -0.000000 -32.862282
LeftUpLeg -45.926828 14.392089 12.452440
LeftLeg 28.695456 -0.000000 -0.000000
LeftFoot -19.323557 9.760365 -2.023365
LeftToeBase 4.269312 -0.000000 -0.000000
RightUpLeg -157.182413 -24.262182 24.068063
RightLeg 150.499735 -0.000000 -0.000000
RightFoot 45.160866 -3.462761 6.294297
RightToeBase 51.036672 -0.000000 -0.000000
1624
root 3.046171 32.878621 -6.107386 50.581595 -32.158346 -30.267615
Spine -31.030462 -20.860713 36.870958
Head -14.699853 -8.732555 -3.118877
LeftShoulder 9.463918 44.600519 24.332702
LeftArm 74.532242 22.830156 -64.560412
LeftForeArm 6.041190 -0.000000 44.808224
LeftHand 45.142890 0.000000 15.983204
LeftHandThumb1 -26.253704 0.000000 33.147579
RightShoulder 1.567103 -52.737438 -14.809584
RightArm 68.167640 -13.395193 54.112419
RightForeArm 48.855538 -0.000000 45.201482
RightHand 13.747151 -0.000000 15.262343
RightHandThumb1 -24.326973 -0.000000 -32.862282
LeftUpLeg -46.001548 14.345232 12.373271
LeftLeg 28.847853 -0.000000 -0.000000
LeftFoot -19.254200 10.001157 -2.033360
LeftToeBase 3.793714 -0.000000 -0.000000
RightUpLeg -157.477649 -23.697288 24.231569
RightLeg 150.544804 -0.000000 -0.000000
RightFoot 45.051546 -3.721705 6.844207
RightToeBase 51.056429 -0.000000 -0.000000
1625
root 3.053909 32.872872 -6.091008 50.650525 -32.395922 -30.301609
Spine -30.983100 -21.132202 36.919191
Head -14.777141 -8.338363 -3.291320
LeftShoulder 9.406209 44.423110 24.170960
LeftArm 76.354174 22.425785 -61.966854
LeftForeArm 6.443696 -0.000000 43.264991
LeftHand 45.599739 -0.000000 15.084293
LeftHandThumb1 -26.253704 0.000000 33.147579
RightShoulder 1.948754 -52.601325 -15.161532
RightArm 68.365164 -13.608778 54.010739
RightForeArm 49.008654 -0.000000 45.138673
RightHand 13.666528 0.000000 15.370447
RightHandThumb1 -24.326973 -0.000000 -32.862282
LeftUpLeg -46.004366 14.309931 12.299731
LeftLeg 28.948330 -0.000000 -0.000000
LeftFoot -19.177617 10.236915 -1.956889
LeftToeBase 3.559827 -0.000000 -0.000000
RightUpLeg -157.755535 -23.140405 24.432613
RightLeg 150.572766 -0.000000 -0.000000
RightFoot 44.895419 -3.946393 7.328931
RightToeBase 51.001113 -0.000000 -0.000000
1626
root 3.071297 32.871687 -6.065217 51.018284 -32.647033 -30.548844
Spine -31.000655 -21.055293 37.116923
Head -14.855697 -8.092499 -3.561869
LeftShoulder 9.422662 44.260672 24.081031
LeftArm 78.288242 22.091590 -59.133849
LeftForeArm 5.897613 -0.000000 42.045570
LeftHand 45.802111 0.000000 14.374677
LeftHandThumb1 -26.253704 0.000000 33.147579
RightShoulder 2.219980 -52.560246 -15.465606
RightArm 68.598302 -13.732223 54.027013
RightForeArm 49.049877 -0.000000 45.049929
RightHand 13.770639 -0.000000 15.379694
RightHandThumb1 -24.326973 -0.000000 -32.862282
LeftUpLeg -46.120123 14.399350 12.304278
LeftLeg 29.018778 -0.000000 -0.000000
LeftFoot -19.169202 10.545134 -1.832782
LeftToeBase 3.451395 -0.000000 -0.000000
RightUpLeg -158.103735 -22.381337 24.837157
RightLeg 150.473987 -0.000000 -0.000000
RightFoot 44.791929 -4.051513 7.482691
RightToeBase 50.952363 -0.000000 -0.000000
